<mxfile host="app.diagrams.net" modified="2023-06-11T23:45:56.880Z" agent="Mozilla/5.0 (X11; Linux x86_64) AppleWebKit/537.36 (KHTML, like Gecko) Chrome/114.0.0.0 Safari/537.36" etag="sTEeDXMtQiyVymqUpdYS" version="21.3.8" type="device">
  <diagram name="Page-1" id="2rdXgQ6aGhtBmCbFsZsG">
    <mxGraphModel dx="1376" dy="779" grid="1" gridSize="10" guides="1" tooltips="1" connect="1" arrows="1" fold="1" page="1" pageScale="1" pageWidth="850" pageHeight="1100" background="none" math="0" shadow="0">
      <root>
        <mxCell id="0" />
        <mxCell id="1" parent="0" />
        <mxCell id="6H433AzC_slTD-j6Gyic-73" value="" style="rounded=0;whiteSpace=wrap;html=1;fillColor=#363636;" parent="1" vertex="1">
          <mxGeometry x="5" y="150" width="840" height="550" as="geometry" />
        </mxCell>
        <mxCell id="6H433AzC_slTD-j6Gyic-5" value="S3 (Simple Storage Service)&lt;br&gt;Email Persistence" style="points=[[0,0,0],[0.25,0,0],[0.5,0,0],[0.75,0,0],[1,0,0],[0,1,0],[0.25,1,0],[0.5,1,0],[0.75,1,0],[1,1,0],[0,0.25,0],[0,0.5,0],[0,0.75,0],[1,0.25,0],[1,0.5,0],[1,0.75,0]];outlineConnect=0;gradientDirection=north;dashed=0;verticalLabelPosition=bottom;verticalAlign=top;align=center;html=1;fontSize=12;fontStyle=0;aspect=fixed;shape=mxgraph.aws4.resourceIcon;resIcon=mxgraph.aws4.s3;labelBackgroundColor=none;rounded=0;labelPosition=center;" parent="1" vertex="1">
          <mxGeometry x="620" y="250.5" width="78" height="78" as="geometry" />
        </mxCell>
        <mxCell id="6H433AzC_slTD-j6Gyic-51" style="edgeStyle=orthogonalEdgeStyle;rounded=0;orthogonalLoop=1;jettySize=auto;html=1;exitX=0;exitY=0.5;exitDx=0;exitDy=0;exitPerimeter=0;entryX=0.5;entryY=0;entryDx=0;entryDy=0;entryPerimeter=0;" parent="1" source="6H433AzC_slTD-j6Gyic-6" target="6H433AzC_slTD-j6Gyic-8" edge="1">
          <mxGeometry relative="1" as="geometry" />
        </mxCell>
        <mxCell id="6H433AzC_slTD-j6Gyic-52" style="edgeStyle=orthogonalEdgeStyle;rounded=0;orthogonalLoop=1;jettySize=auto;html=1;exitX=1;exitY=0.5;exitDx=0;exitDy=0;exitPerimeter=0;entryX=0.5;entryY=0;entryDx=0;entryDy=0;entryPerimeter=0;" parent="1" source="6H433AzC_slTD-j6Gyic-6" target="6H433AzC_slTD-j6Gyic-5" edge="1">
          <mxGeometry relative="1" as="geometry" />
        </mxCell>
        <mxCell id="6H433AzC_slTD-j6Gyic-6" value="SES (Simple Email Service)&lt;br&gt;Sends &amp;amp; Receives Emails" style="points=[[0,0,0],[0.25,0,0],[0.5,0,0],[0.75,0,0],[1,0,0],[0,1,0],[0.25,1,0],[0.5,1,0],[0.75,1,0],[1,1,0],[0,0.25,0],[0,0.5,0],[0,0.75,0],[1,0.25,0],[1,0.5,0],[1,0.75,0]];outlineConnect=0;gradientDirection=north;dashed=0;verticalLabelPosition=bottom;verticalAlign=top;align=center;html=1;fontSize=12;fontStyle=0;aspect=fixed;shape=mxgraph.aws4.resourceIcon;resIcon=mxgraph.aws4.simple_email_service;horizontal=1;labelPosition=center;labelBackgroundColor=none;rounded=0;" parent="1" vertex="1">
          <mxGeometry x="481" y="170" width="78" height="78" as="geometry" />
        </mxCell>
        <mxCell id="6H433AzC_slTD-j6Gyic-62" style="edgeStyle=orthogonalEdgeStyle;rounded=0;orthogonalLoop=1;jettySize=auto;html=1;exitX=0.5;exitY=1;exitDx=0;exitDy=0;exitPerimeter=0;entryX=0.516;entryY=-0.026;entryDx=0;entryDy=0;entryPerimeter=0;" parent="1" source="6H433AzC_slTD-j6Gyic-7" target="6H433AzC_slTD-j6Gyic-37" edge="1">
          <mxGeometry relative="1" as="geometry" />
        </mxCell>
        <mxCell id="6H433AzC_slTD-j6Gyic-65" style="edgeStyle=orthogonalEdgeStyle;rounded=0;orthogonalLoop=1;jettySize=auto;html=1;exitX=1;exitY=0.5;exitDx=0;exitDy=0;exitPerimeter=0;entryX=1;entryY=0.5;entryDx=0;entryDy=0;entryPerimeter=0;" parent="1" source="6H433AzC_slTD-j6Gyic-7" target="6H433AzC_slTD-j6Gyic-5" edge="1">
          <mxGeometry relative="1" as="geometry">
            <Array as="points">
              <mxPoint x="830" y="526" />
              <mxPoint x="830" y="290" />
            </Array>
          </mxGeometry>
        </mxCell>
        <mxCell id="6H433AzC_slTD-j6Gyic-7" value="Lambda Funtion&lt;br&gt;Processes and forwards email" style="points=[[0,0,0],[0.25,0,0],[0.5,0,0],[0.75,0,0],[1,0,0],[0,1,0],[0.25,1,0],[0.5,1,0],[0.75,1,0],[1,1,0],[0,0.25,0],[0,0.5,0],[0,0.75,0],[1,0.25,0],[1,0.5,0],[1,0.75,0]];outlineConnect=0;gradientDirection=north;dashed=0;verticalLabelPosition=middle;verticalAlign=middle;align=right;html=1;fontSize=12;fontStyle=0;aspect=fixed;shape=mxgraph.aws4.resourceIcon;resIcon=mxgraph.aws4.lambda;labelBackgroundColor=none;rounded=0;labelPosition=left;" parent="1" vertex="1">
          <mxGeometry x="720" y="487.5" width="78" height="78" as="geometry" />
        </mxCell>
        <mxCell id="6H433AzC_slTD-j6Gyic-53" style="edgeStyle=orthogonalEdgeStyle;rounded=0;orthogonalLoop=1;jettySize=auto;html=1;exitX=0.5;exitY=1;exitDx=0;exitDy=0;exitPerimeter=0;entryX=0.5;entryY=0;entryDx=0;entryDy=0;entryPerimeter=0;" parent="1" source="6H433AzC_slTD-j6Gyic-8" target="6H433AzC_slTD-j6Gyic-10" edge="1">
          <mxGeometry relative="1" as="geometry" />
        </mxCell>
        <mxCell id="6H433AzC_slTD-j6Gyic-8" value="SNS (Simple Notification Service)&lt;br&gt;Email Received Notification" style="points=[[0,0,0],[0.25,0,0],[0.5,0,0],[0.75,0,0],[1,0,0],[0,1,0],[0.25,1,0],[0.5,1,0],[0.75,1,0],[1,1,0],[0,0.25,0],[0,0.5,0],[0,0.75,0],[1,0.25,0],[1,0.5,0],[1,0.75,0]];outlineConnect=0;gradientDirection=north;dashed=0;verticalLabelPosition=middle;verticalAlign=middle;align=right;html=1;fontSize=12;fontStyle=0;aspect=fixed;shape=mxgraph.aws4.resourceIcon;resIcon=mxgraph.aws4.sns;labelBackgroundColor=none;rounded=0;labelPosition=left;" parent="1" vertex="1">
          <mxGeometry x="340" y="250.5" width="78" height="78" as="geometry" />
        </mxCell>
        <mxCell id="6H433AzC_slTD-j6Gyic-64" style="edgeStyle=orthogonalEdgeStyle;rounded=0;orthogonalLoop=1;jettySize=auto;html=1;exitX=0.5;exitY=1;exitDx=0;exitDy=0;exitPerimeter=0;entryX=0.505;entryY=-0.053;entryDx=0;entryDy=0;entryPerimeter=0;" parent="1" source="6H433AzC_slTD-j6Gyic-9" target="6H433AzC_slTD-j6Gyic-38" edge="1">
          <mxGeometry relative="1" as="geometry" />
        </mxCell>
        <mxCell id="6H433AzC_slTD-j6Gyic-9" value="SNS (Simple Notification Service)&lt;br&gt;Notified of Alarm&lt;br&gt;Sends alert email to admin" style="points=[[0,0,0],[0.25,0,0],[0.5,0,0],[0.75,0,0],[1,0,0],[0,1,0],[0.25,1,0],[0.5,1,0],[0.75,1,0],[1,1,0],[0,0.25,0],[0,0.5,0],[0,0.75,0],[1,0.25,0],[1,0.5,0],[1,0.75,0]];outlineConnect=0;gradientDirection=north;dashed=0;verticalLabelPosition=middle;verticalAlign=middle;align=right;html=1;fontSize=12;fontStyle=0;aspect=fixed;shape=mxgraph.aws4.resourceIcon;resIcon=mxgraph.aws4.sns;labelBackgroundColor=none;rounded=0;labelPosition=left;" parent="1" vertex="1">
          <mxGeometry x="207" y="569.5" width="78" height="78" as="geometry" />
        </mxCell>
        <mxCell id="6H433AzC_slTD-j6Gyic-54" style="edgeStyle=orthogonalEdgeStyle;rounded=0;orthogonalLoop=1;jettySize=auto;html=1;exitX=0.5;exitY=1;exitDx=0;exitDy=0;exitPerimeter=0;entryX=0.5;entryY=0;entryDx=0;entryDy=0;entryPerimeter=0;" parent="1" source="6H433AzC_slTD-j6Gyic-10" target="6H433AzC_slTD-j6Gyic-17" edge="1">
          <mxGeometry relative="1" as="geometry" />
        </mxCell>
        <mxCell id="6H433AzC_slTD-j6Gyic-61" style="edgeStyle=orthogonalEdgeStyle;rounded=0;orthogonalLoop=1;jettySize=auto;html=1;exitX=0.75;exitY=0;exitDx=0;exitDy=0;exitPerimeter=0;entryX=0.5;entryY=0;entryDx=0;entryDy=0;entryPerimeter=0;" parent="1" source="6H433AzC_slTD-j6Gyic-10" target="6H433AzC_slTD-j6Gyic-7" edge="1">
          <mxGeometry relative="1" as="geometry" />
        </mxCell>
        <mxCell id="6H433AzC_slTD-j6Gyic-10" value="SQS (Simple Queue Service)&lt;br&gt;Email Received Notification Queue" style="points=[[0,0,0],[0.25,0,0],[0.5,0,0],[0.75,0,0],[1,0,0],[0,1,0],[0.25,1,0],[0.5,1,0],[0.75,1,0],[1,1,0],[0,0.25,0],[0,0.5,0],[0,0.75,0],[1,0.25,0],[1,0.5,0],[1,0.75,0]];outlineConnect=0;gradientDirection=north;dashed=0;verticalLabelPosition=middle;verticalAlign=middle;align=left;html=1;fontSize=12;fontStyle=0;aspect=fixed;shape=mxgraph.aws4.resourceIcon;resIcon=mxgraph.aws4.sqs;labelBackgroundColor=none;rounded=0;labelPosition=right;" parent="1" vertex="1">
          <mxGeometry x="340" y="409.5" width="78" height="78" as="geometry" />
        </mxCell>
        <mxCell id="6H433AzC_slTD-j6Gyic-58" style="edgeStyle=orthogonalEdgeStyle;rounded=0;orthogonalLoop=1;jettySize=auto;html=1;exitX=0;exitY=0.5;exitDx=0;exitDy=0;exitPerimeter=0;entryX=1;entryY=0.5;entryDx=0;entryDy=0;entryPerimeter=0;" parent="1" source="6H433AzC_slTD-j6Gyic-17" target="6H433AzC_slTD-j6Gyic-19" edge="1">
          <mxGeometry relative="1" as="geometry" />
        </mxCell>
        <mxCell id="6H433AzC_slTD-j6Gyic-17" value="SQS (Simple Queue Service)&lt;br&gt;Dead-Letter-Queue for&amp;nbsp;Unprocessable&amp;nbsp;Emails" style="points=[[0,0,0],[0.25,0,0],[0.5,0,0],[0.75,0,0],[1,0,0],[0,1,0],[0.25,1,0],[0.5,1,0],[0.75,1,0],[1,1,0],[0,0.25,0],[0,0.5,0],[0,0.75,0],[1,0.25,0],[1,0.5,0],[1,0.75,0]];outlineConnect=0;gradientDirection=north;dashed=0;verticalLabelPosition=middle;verticalAlign=middle;align=left;html=1;fontSize=12;fontStyle=0;aspect=fixed;shape=mxgraph.aws4.resourceIcon;resIcon=mxgraph.aws4.sqs;labelBackgroundColor=none;rounded=0;labelPosition=right;" parent="1" vertex="1">
          <mxGeometry x="340" y="569.5" width="78" height="78" as="geometry" />
        </mxCell>
        <mxCell id="6H433AzC_slTD-j6Gyic-59" style="edgeStyle=orthogonalEdgeStyle;rounded=0;orthogonalLoop=1;jettySize=auto;html=1;exitX=0.5;exitY=1;exitDx=0;exitDy=0;exitPerimeter=0;entryX=0.5;entryY=0;entryDx=0;entryDy=0;entryPerimeter=0;" parent="1" source="6H433AzC_slTD-j6Gyic-19" target="6H433AzC_slTD-j6Gyic-9" edge="1">
          <mxGeometry relative="1" as="geometry" />
        </mxCell>
        <mxCell id="6H433AzC_slTD-j6Gyic-19" value="Cloudwatch&lt;br&gt;Alarm Trigger for DLQ" style="points=[[0,0,0],[0.25,0,0],[0.5,0,0],[0.75,0,0],[1,0,0],[0,1,0],[0.25,1,0],[0.5,1,0],[0.75,1,0],[1,1,0],[0,0.25,0],[0,0.5,0],[0,0.75,0],[1,0.25,0],[1,0.5,0],[1,0.75,0]];points=[[0,0,0],[0.25,0,0],[0.5,0,0],[0.75,0,0],[1,0,0],[0,1,0],[0.25,1,0],[0.5,1,0],[0.75,1,0],[1,1,0],[0,0.25,0],[0,0.5,0],[0,0.75,0],[1,0.25,0],[1,0.5,0],[1,0.75,0]];outlineConnect=0;gradientDirection=north;dashed=0;verticalLabelPosition=middle;verticalAlign=middle;align=right;html=1;fontSize=12;fontStyle=0;aspect=fixed;shape=mxgraph.aws4.resourceIcon;resIcon=mxgraph.aws4.cloudwatch_2;labelBackgroundColor=none;rounded=0;labelPosition=left;" parent="1" vertex="1">
          <mxGeometry x="207" y="409.5" width="78" height="78" as="geometry" />
        </mxCell>
        <mxCell id="6H433AzC_slTD-j6Gyic-37" value="Forwarded Email" style="verticalLabelPosition=bottom;shadow=0;dashed=0;align=center;html=1;verticalAlign=top;strokeWidth=3;shape=mxgraph.mockup.misc.mail2;strokeColor=#C2C2C2;" parent="1" vertex="1">
          <mxGeometry x="728" y="748" width="60" height="40" as="geometry" />
        </mxCell>
        <mxCell id="6H433AzC_slTD-j6Gyic-38" value="Alert Email" style="verticalLabelPosition=bottom;shadow=0;dashed=0;align=center;html=1;verticalAlign=top;strokeWidth=3;shape=mxgraph.mockup.misc.mail2;strokeColor=#C2C2C2;" parent="1" vertex="1">
          <mxGeometry x="215" y="748" width="60" height="40" as="geometry" />
        </mxCell>
        <mxCell id="6H433AzC_slTD-j6Gyic-40" value="" style="verticalLabelPosition=bottom;html=1;verticalAlign=top;align=center;shape=mxgraph.azure.azure_alert;strokeWidth=1;" parent="1" vertex="1">
          <mxGeometry x="259" y="730" width="39.09" height="30" as="geometry" />
        </mxCell>
        <mxCell id="6H433AzC_slTD-j6Gyic-44" value="" style="outlineConnect=0;dashed=0;verticalLabelPosition=bottom;verticalAlign=top;align=center;html=1;shape=mxgraph.aws3.user;fillColor=#D2D3D3;gradientColor=none;" parent="1" vertex="1">
          <mxGeometry x="497.5" y="40" width="45" height="58" as="geometry" />
        </mxCell>
        <mxCell id="6H433AzC_slTD-j6Gyic-71" value="" style="endArrow=classic;html=1;rounded=0;exitX=0.5;exitY=1;exitDx=0;exitDy=0;exitPerimeter=0;entryX=0.5;entryY=0;entryDx=0;entryDy=0;entryPerimeter=0;" parent="1" source="6H433AzC_slTD-j6Gyic-44" target="6H433AzC_slTD-j6Gyic-6" edge="1">
          <mxGeometry relative="1" as="geometry">
            <mxPoint x="170" y="379" as="sourcePoint" />
            <mxPoint x="270" y="379" as="targetPoint" />
          </mxGeometry>
        </mxCell>
        <mxCell id="6H433AzC_slTD-j6Gyic-72" value="" style="shape=message;html=1;outlineConnect=0;" parent="6H433AzC_slTD-j6Gyic-71" vertex="1">
          <mxGeometry width="20" height="14" relative="1" as="geometry">
            <mxPoint x="-10" y="-14" as="offset" />
          </mxGeometry>
        </mxCell>
        <mxCell id="6H433AzC_slTD-j6Gyic-74" value="&lt;font style=&quot;font-size: 18px;&quot;&gt;AWS&lt;/font&gt;" style="text;html=1;align=center;verticalAlign=middle;resizable=0;points=[];autosize=1;strokeColor=none;fillColor=none;" parent="1" vertex="1">
          <mxGeometry x="15" y="163" width="60" height="40" as="geometry" />
        </mxCell>
      </root>
    </mxGraphModel>
  </diagram>
</mxfile>
